<svg width="73" height="21" xmlns="http://www.w3.org/2000/svg"><path d="M73 0v21H52V0h21ZM47 0v21H26V0h21ZM21 0v21H0V0h21Zm42.53 4.468c-.94 0-1.787.14-2.543.42a5.465 5.465 0 0 0-1.946 1.215A5.312 5.312 0 0 0 57.8 8.006c-.287.74-.43 1.568-.43 2.486 0 .94.138 1.784.414 2.534.276.75.673 1.385 1.192 1.903a5.17 5.17 0 0 0 1.905 1.19c.75.275 1.595.413 2.533.413a8.49 8.49 0 0 0 2.02-.235 6.778 6.778 0 0 0 1.69-.64v-2.25a6.254 6.254 0 0 1-3.362.955c-.795 0-1.471-.151-2.029-.453a3.009 3.009 0 0 1-1.275-1.32c-.292-.577-.439-1.277-.439-2.097 0-.82.152-1.517.456-2.09.303-.571.74-1.008 1.308-1.31.568-.303 1.256-.454 2.062-.454.585 0 1.142.078 1.672.235.53.156 1.021.386 1.474.688v-2.3a6.828 6.828 0 0 0-1.614-.59 8.131 8.131 0 0 0-1.847-.203Zm-27.19.126h-4.402v11.812h4.674c.925 0 1.717-.137 2.377-.413.659-.275 1.167-.666 1.523-1.173.356-.506.535-1.112.535-1.817 0-.716-.184-1.324-.55-1.826-.368-.5-.897-.867-1.588-1.098.5-.242.877-.57 1.133-.983.255-.413.382-.9.382-1.462 0-.98-.356-1.732-1.068-2.256-.713-.522-1.718-.784-3.016-.784Zm-26.071 0H5.866v11.812h4.674c.925 0 1.718-.137 2.377-.413.66-.275 1.167-.666 1.524-1.173.356-.506.534-1.112.534-1.817 0-.716-.183-1.324-.55-1.826-.367-.5-.896-.867-1.588-1.098.5-.242.878-.57 1.133-.983.255-.413.383-.9.383-1.462 0-.98-.356-1.732-1.069-2.256-.712-.522-1.718-.784-3.015-.784ZM36.42 11.3c1.457 0 2.186.54 2.186 1.62 0 .506-.192.894-.574 1.164-.383.27-.931.405-1.644.405h-2.073V11.3h2.105Zm-26.071 0c1.457 0 2.185.54 2.185 1.62 0 .506-.191.894-.574 1.164-.383.27-.93.405-1.643.405H8.243V11.3h2.106Zm25.768-4.79c1.266 0 1.899.467 1.899 1.403 0 .485-.163.862-.487 1.132-.325.27-.795.405-1.412.405h-1.802V6.51h1.802Zm-26.071 0c1.265 0 1.898.467 1.898 1.403 0 .485-.162.862-.486 1.132-.325.27-.796.405-1.412.405H8.243V6.51h1.803Z" fill="#FFF" fill-rule="nonzero"/></svg>